# xmcd
#
# Track frame offsets:
#	150
#	12630
#	22945
#	33370
#	44913
#	53936
#	68235
#	79486
#	89981
#	100566
#	109099
#	120457
#	131233
#	140216
#
# Disc length: 1976 seconds
#
# Revision: 1
# Processed by: cddbd v1.5.2PL0 Copyright (c) Steve Scherf et al.
# Submitted via: audiograbber 1.83.01
#
DISCID=d107b60e
DTITLE=Marty Robbins - The Story of My Life CD3
DYEAR=2008
DGENRE=Country
TTITLE0=I´m So Lonesome I Could Cry
TTITLE1=I´ll Step Aside
TTITLE2=Bouquet Of Roses
TTITLE3=Lovesick Blues
TTITLE4=Moanin´ The Blues
TTITLE5=Have I Told You Lately That I Love You
TTITLE6=A White Sport Coat (And A Pink Carnation)
TTITLE7=Grown-Up Tears
TTITLE8=Please Don´t Blame Me
TTITLE9=Teen-Age Dream
TTITLE10=The Story Of My Life
TTITLE11=Once A-Week Date
TTITLE12=Crying Steel Guitar Waltz
TTITLE13=Sweet Leilani
EXTD=
EXTT0=
EXTT1=
EXTT2=
EXTT3=
EXTT4=
EXTT5=
EXTT6=
EXTT7=
EXTT8=
EXTT9=
EXTT10=
EXTT11=
EXTT12=
EXTT13=
PLAYORDER=
